<svg width="148" height="148" viewBox="0 0 148 148" fill="none" xmlns="http://www.w3.org/2000/svg">
<path d="M110.206 20.422C103.509 20.4248 97.7468 25.1578 96.443 31.7265C95.1393 38.2952 98.6573 44.8702 104.846 47.4302C111.034 49.9902 118.169 47.8224 121.887 42.2524C125.605 36.6824 124.87 29.2617 120.133 24.5286C117.504 21.8901 113.93 20.4116 110.206 20.422ZM115.497 39.742C112.577 42.6504 107.854 42.6444 104.942 39.7286C102.03 36.8128 102.03 32.0893 104.942 29.1735C107.854 26.2578 112.577 26.2518 115.497 29.1602C116.914 30.5567 117.711 32.4634 117.709 34.4528C117.708 36.4421 116.908 38.3476 115.489 39.742H115.497ZM142.179 8.88389L142.073 7.28442C141.979 5.63405 140.663 4.31627 139.013 4.21978L137.421 4.11396C137.137 4.09361 135.586 4 133.103 4C121.301 4 91.8303 6.07565 72.5919 25.3223C70.2313 27.6828 67.9807 30.1248 65.8847 32.6074C63.1367 31.3101 60.1324 30.6467 57.0936 30.6661C51.4202 30.6661 46.0642 32.7702 42.4013 36.4372L22.3814 56.4571C20.1144 58.7159 20.8022 61.4427 21.1604 62.9079C21.2296 63.1724 21.2988 63.4411 21.3517 63.7219C21.6596 65.3784 22.4629 66.9025 23.6553 68.093C24.3935 68.8261 25.2598 69.4179 26.2112 69.839L44.0618 77.6451L26.4757 95.2271C25.894 95.8085 25.5513 96.5869 25.5152 97.4085C25.5152 97.7301 25.2669 105.337 32.8736 112.943C39.8861 119.956 46.9026 120.302 48.205 120.302H48.4125C49.2323 120.266 50.0091 119.925 50.5899 119.345L68.4975 101.438L76.792 120.342C77.8816 122.889 80.173 124.722 82.8969 125.226C83.4054 125.323 83.9219 125.37 84.4394 125.369C86.6559 125.375 88.783 124.496 90.3489 122.927L110.576 102.695C116.496 96.7648 117.819 87.6519 113.832 80.2823C116.299 78.1823 118.692 75.9764 120.975 73.6891C144.686 50.0063 142.305 10.5403 142.179 8.88389ZM47.0125 113.631C45.1973 113.342 41.4815 112.264 37.5174 108.304C33.5533 104.344 32.4747 100.603 32.1858 98.8086L47.3503 83.636C48.2976 87.3294 50.2011 90.7081 52.8691 93.4322C55.3972 95.9135 58.4996 97.7311 61.9002 98.7231L47.0125 113.631ZM107.426 77.0793C106.028 78.2091 105.797 80.2534 106.909 81.6661C110.779 86.5921 110.36 93.6321 105.933 98.0638L85.7092 118.291C85.2894 118.728 84.6726 118.914 84.0812 118.784C83.5038 118.674 83.0194 118.283 82.7911 117.742L72.9907 95.3329C72.4726 94.1508 71.3102 93.3817 70.0197 93.3671C64.7288 93.3101 60.5164 91.7676 57.5413 88.7885C54.6924 85.9395 53.154 81.9266 52.983 76.9206C53.0242 76.4551 52.9659 75.9862 52.8121 75.545C52.8098 75.5342 52.8098 75.5231 52.8121 75.5124C52.7437 75.3329 52.6593 75.1599 52.5598 74.9955C52.2244 74.3364 51.6747 73.811 51.001 73.506L28.9217 63.8277C28.7101 63.7338 28.516 63.6044 28.3479 63.4451C28.0907 63.1846 27.9177 62.8528 27.8513 62.4928C27.774 62.0858 27.6763 61.6788 27.5786 61.3003C27.5339 61.1253 27.4769 60.8933 27.4362 60.7224L47.0817 41.0769C49.491 38.6716 53.2476 37.2349 57.1303 37.2349C60.0403 37.2349 62.7305 38.0489 64.7044 39.51C66.1233 40.5618 68.1197 40.3048 69.2261 38.928C71.7443 35.8001 74.4303 32.8111 77.2723 29.9742C94.7729 12.4736 122.176 10.5688 133.14 10.5688C134.206 10.5688 135.077 10.5892 135.724 10.6095C135.973 17.5284 135.977 49.4528 116.36 69.0657C113.525 71.8923 110.543 74.5672 107.426 77.0793ZM27.7292 120.839C26.4467 119.557 24.368 119.557 23.0855 120.839L5.56043 138.34C4.32526 139.63 4.34747 141.67 5.61042 142.933C6.87337 144.196 8.91406 144.219 10.2042 142.983L27.7292 125.462C29.0021 124.184 29.0021 122.117 27.7292 120.839ZM34.0376 129.911L25.5844 138.36C24.3492 139.65 24.3714 141.691 25.6344 142.954C26.8973 144.217 28.938 144.239 30.2282 143.004L38.6814 134.555C39.9165 133.264 39.8943 131.224 38.6314 129.961C37.3684 128.698 35.3277 128.676 34.0376 129.911ZM97.4753 86.4971L82.4533 101.519C81.1721 102.801 81.173 104.88 82.4553 106.161C83.7376 107.442 85.8158 107.441 87.097 106.159L102.115 91.1409C103.397 89.8597 103.398 87.7815 102.117 86.4991C100.836 85.2168 98.7577 85.2159 97.4753 86.4971ZM54.9244 43.9462L39.9064 58.9642C39.0465 59.7874 38.6994 61.0115 38.9992 62.1636C39.2989 63.3157 40.1986 64.2154 41.3507 64.5152C42.5028 64.8149 43.7269 64.4678 44.5502 63.6079L59.5681 48.59C60.428 47.7667 60.7752 46.5426 60.4754 45.3905C60.1756 44.2384 59.2759 43.3387 58.1238 43.0389C56.9717 42.7392 55.7476 43.0863 54.9244 43.9462ZM12.8944 118.934C13.7656 118.936 14.6012 118.589 15.2143 117.97L22.7232 110.461C23.5831 109.637 23.9303 108.413 23.6305 107.261C23.3307 106.109 22.431 105.209 21.2789 104.91C20.1268 104.61 18.9027 104.957 18.0795 105.817L10.5705 113.33C9.63281 114.27 9.35307 115.682 9.86159 116.908C10.3701 118.134 11.5668 118.934 12.8944 118.934Z" fill="#DF8270"/>
</svg>
