<svg width="148" height="148" viewBox="0 0 148 148" fill="none" xmlns="http://www.w3.org/2000/svg">
<path d="M68.8501 94.8293H43.2524V90.59L59.6778 74.0182C60.2816 73.4119 60.8764 72.7606 61.4622 72.0643C62.0321 71.3785 62.5476 70.6492 63.0037 69.883C63.4575 69.1261 63.8185 68.3174 64.079 67.4743C64.3391 66.6213 64.469 65.7339 64.4644 64.8421C64.4807 63.7528 64.268 62.6722 63.84 61.6703C63.4443 60.7538 62.8553 59.9335 62.1135 59.2655C61.3704 58.5939 60.5057 58.0706 59.566 57.7239C58.5969 57.3638 57.5708 57.181 56.5369 57.1843C54.5326 57.1285 52.5843 57.8493 51.099 59.1961C49.6327 60.5489 48.6477 62.3431 48.2934 64.3064L44.2737 63.5125C44.5315 62.1295 45.0396 60.8052 45.7729 59.6046C46.492 58.4164 47.4127 57.3626 48.4938 56.4906C49.5879 55.612 50.8215 54.9229 52.1434 54.4519C53.563 53.9518 55.0588 53.7027 56.5639 53.7158C58.1329 53.7058 59.6938 53.9438 61.1885 54.4211C62.5837 54.8619 63.8777 55.5744 64.9962 56.5176C66.1041 57.4728 66.9928 58.6559 67.6014 59.9861C68.2798 61.4876 68.6142 63.1216 68.5803 64.7688C68.5909 65.9795 68.4088 67.1841 68.0408 68.3376C67.6868 69.425 67.2124 70.4695 66.6264 71.4515C66.0286 72.4503 65.3369 73.3898 64.5607 74.2572C63.7668 75.1436 62.9356 76.021 62.0672 76.8894L47.6151 91.2067H68.8501V94.8293Z" fill="#DF8270"/>
<path d="M97.9048 81.5217H103.794V85.1482H97.9048V94.8292H93.9391V85.1482H75.5791V81.1825L92.5671 54.7332H97.8932L97.9048 81.5217ZM93.9391 59.3232H93.8274L79.8377 81.5217H93.9391V59.3232Z" fill="#DF8270"/>
<path d="M139.797 55.7584C148.337 86.3906 134.751 118.882 106.947 134.317C79.144 149.752 44.3829 144.101 22.9007 120.653C1.41856 97.2058 -1.17585 62.0841 16.6279 35.7346C34.4316 9.38518 67.985 -1.3123 97.7546 9.86988" stroke="#DF8270" stroke-width="6.3" stroke-linecap="round" stroke-linejoin="round"/>
<path d="M90.8369 17.6625L110.365 16.1672L99.3078 0L90.8369 17.6625Z" fill="#DF8270"/>
<path d="M73.5249 17.5969V24.9617" stroke="#DF8270" stroke-width="5.04" stroke-linecap="round"/>
<path d="M130.197 74.2725H122.832" stroke="#DF8270" stroke-width="5.04" stroke-linecap="round"/>
<path d="M73.5249 130.944V123.58" stroke="#DF8270" stroke-width="5.04" stroke-linecap="round"/>
<path d="M16.8496 74.2725H24.2144" stroke="#DF8270" stroke-width="5.04" stroke-linecap="round"/>
</svg>
