<svg width="148" height="148" viewBox="0 0 148 148" fill="none" xmlns="http://www.w3.org/2000/svg">
<path d="M118.9 125.064C112.014 125.069 105.472 122.054 101.003 116.815C96.5333 111.577 94.5861 104.642 95.6757 97.8421H11.2887C7.5812 97.8379 4.5767 94.8334 4.57251 91.1259V27.9862C4.5767 24.2787 7.5812 21.2742 11.2887 21.27H117.381C121.089 21.2742 124.095 24.2783 124.1 27.9862V57.9776C131.201 60.2566 136.027 66.8486 136.054 74.3062V85.5007C142.462 92.3341 144.198 102.322 140.472 110.917C136.745 119.511 128.268 125.071 118.9 125.064ZM118.9 81.6376C110.85 81.6366 103.592 86.4852 100.51 93.9224C97.429 101.36 99.1312 109.921 104.823 115.613C110.515 121.306 119.076 123.01 126.514 119.929C133.951 116.849 138.801 109.591 138.801 101.541C138.788 90.5547 129.886 81.6515 118.9 81.6376ZM96.5517 94.2245C97.6289 90.9705 99.4006 87.9896 101.744 85.4881V74.2935C101.755 64.8238 109.431 57.1506 118.9 57.1422C119.429 57.1434 119.957 57.1722 120.482 57.2283V47.7856H8.19264V91.1259C8.19404 92.8352 9.57939 94.2206 11.2887 94.222H96.5593L96.5517 94.2245ZM118.9 78.0225C123.748 78.031 128.474 79.5338 132.437 82.3262V74.2935C132.437 66.8177 126.376 60.7573 118.9 60.7573C111.424 60.7573 105.364 66.8177 105.364 74.2935V82.3236C109.326 79.5298 114.053 78.026 118.9 78.0175V78.0225ZM120.482 44.1705V36.8847H8.19264V44.1654L120.482 44.1705ZM120.482 33.2696V27.9862C120.48 26.2755 119.092 24.8901 117.381 24.8901H11.2887C9.57997 24.8929 8.19543 26.2775 8.19264 27.9862V33.2645L120.482 33.2696Z" fill="#DF8270"/>
<path d="M135.305 85.7919V74.2936C135.292 66.9576 130.411 60.5214 123.351 58.5296V27.9863C123.347 24.6933 120.674 22.0267 117.381 22.0295H11.2888C8.00012 22.0323 5.33482 24.6976 5.33203 27.9863V35.0747V45.9604V91.1259C5.33482 94.4146 8.00012 97.0799 11.2888 97.0827H96.5897C94.4512 107.684 100.067 118.327 110.025 122.547C119.983 126.766 131.535 123.397 137.664 114.486C143.793 105.575 142.807 93.582 135.305 85.7919ZM133.204 74.2936V83.8502C124.873 77.0857 112.942 77.0857 104.612 83.8502V74.2936C104.612 66.3983 111.013 59.9979 118.908 59.9979C126.803 59.9979 133.204 66.3983 133.204 74.2936ZM7.43323 36.1253H121.25V44.925H7.43323V36.1253ZM11.2888 24.1307H117.381C119.511 24.1321 121.237 25.8571 121.239 27.9863V34.0215H7.43323V27.9863C7.43462 25.8575 9.16 24.1321 11.2888 24.1307ZM11.2888 94.9815C9.16 94.9801 7.43462 93.2547 7.43323 91.1259V47.0262H121.25V58.0865C120.474 57.9698 119.692 57.9081 118.908 57.9017C109.858 57.9101 102.522 65.2433 102.511 74.2936V85.7919C100.015 88.3871 98.1706 91.5374 97.1289 94.984H11.309L11.2888 94.9815ZM118.9 122.203C110.543 122.204 103.008 117.171 99.8088 109.45C96.6098 101.729 98.377 92.841 104.286 86.931C110.195 81.021 119.083 79.2528 126.804 82.4508C134.526 85.6488 139.56 93.1833 139.56 101.541C139.548 112.946 130.306 122.189 118.9 122.203Z" fill="#DF8270"/>
<path d="M130.396 90.1056C130.384 90.1056 130.381 90.0777 130.368 90.0651C130.356 90.0524 130.341 90.0474 130.328 90.0372C124.015 83.7434 113.801 83.7434 107.488 90.0372C107.475 90.0372 107.46 90.0524 107.45 90.0626C107.44 90.0727 107.435 90.0904 107.422 90.1005C101.127 96.4133 101.127 106.63 107.422 112.943C107.422 112.943 107.437 112.971 107.448 112.983C107.458 112.996 107.475 112.998 107.488 113.009C113.8 119.302 124.014 119.302 130.325 113.009C130.339 112.998 130.353 112.989 130.368 112.981C130.379 112.967 130.388 112.953 130.396 112.938C136.684 106.624 136.684 96.4144 130.396 90.1005V90.1056ZM131.34 102.472H133.171C132.967 105.604 131.732 108.579 129.66 110.935L128.368 109.644C128.132 109.39 127.775 109.286 127.439 109.372C127.103 109.457 126.84 109.72 126.754 110.056C126.668 110.393 126.773 110.749 127.027 110.986L128.32 112.277C125.963 114.349 122.987 115.583 119.855 115.788V113.958C119.873 113.608 119.696 113.276 119.395 113.095C119.095 112.914 118.719 112.914 118.418 113.095C118.117 113.276 117.941 113.608 117.959 113.958V115.788C114.827 115.583 111.851 114.348 109.493 112.277L110.787 110.986C111.041 110.749 111.145 110.393 111.059 110.056C110.973 109.72 110.711 109.457 110.374 109.372C110.038 109.286 109.682 109.39 109.445 109.644L108.154 110.935C106.083 108.579 104.849 105.603 104.645 102.472H106.475C106.98 102.446 107.376 102.029 107.376 101.524C107.376 101.019 106.98 100.602 106.475 100.576H104.645C104.848 97.4451 106.082 94.4694 108.154 92.1131L109.445 93.4042C109.816 93.774 110.416 93.7735 110.785 93.4029C111.155 93.0324 111.155 92.4323 110.784 92.0625L109.493 90.7714C111.851 88.7002 114.827 87.4659 117.959 87.2601V89.0904C117.941 89.4408 118.117 89.7727 118.418 89.9533C118.719 90.1339 119.095 90.1339 119.395 89.9533C119.696 89.7727 119.873 89.4408 119.855 89.0904V87.2601C122.985 87.4666 125.96 88.7009 128.318 90.7714L127.027 92.0625C126.656 92.4323 126.656 93.0324 127.025 93.4029C127.395 93.7735 127.995 93.774 128.366 93.4042L129.657 92.1131C131.729 94.4694 132.964 97.445 133.168 100.576H131.338C130.833 100.602 130.438 101.019 130.438 101.524C130.438 102.029 130.833 102.446 131.338 102.472H131.34Z" fill="#DF8270"/>
<path d="M118.9 96.9028C116.349 96.907 114.284 98.9779 114.288 101.529C114.291 104.08 116.361 106.145 118.912 106.143C121.463 106.141 123.529 104.071 123.528 101.52C123.524 98.968 121.453 96.9014 118.9 96.9028ZM118.9 104.244C117.397 104.24 116.181 103.019 116.184 101.515C116.187 100.012 117.407 98.7951 118.91 98.7964C120.414 98.7978 121.632 100.017 121.632 101.52C121.632 102.244 121.344 102.939 120.831 103.45C120.319 103.962 119.624 104.248 118.9 104.247V104.244Z" fill="#DF8270"/>
<path d="M25.7388 81.2224H13.1317C12.7563 81.2224 12.4095 81.4227 12.2218 81.7477C12.0341 82.0728 12.0341 82.4732 12.2218 82.7983C12.4095 83.1234 12.7563 83.3236 13.1317 83.3236H25.7388C26.1142 83.3236 26.461 83.1234 26.6487 82.7983C26.8363 82.4732 26.8363 82.0728 26.6487 81.7477C26.461 81.4227 26.1142 81.2224 25.7388 81.2224Z" fill="#DF8270"/>
<path d="M49.5633 81.2224H36.9561C36.3759 81.2224 35.9055 81.6928 35.9055 82.273C35.9055 82.8532 36.3759 83.3236 36.9561 83.3236H49.5633C50.1435 83.3236 50.6139 82.8532 50.6139 82.273C50.6139 81.6928 50.1435 81.2224 49.5633 81.2224Z" fill="#DF8270"/>
<path d="M73.3803 81.2224H60.7706C60.1903 81.2224 59.72 81.6928 59.72 82.273C59.72 82.8532 60.1903 83.3236 60.7706 83.3236H73.3803C73.9605 83.3236 74.4309 82.8532 74.4309 82.273C74.4309 81.6928 73.9605 81.2224 73.3803 81.2224Z" fill="#DF8270"/>
<path d="M97.1946 81.2224H84.5875C84.0072 81.2224 83.5369 81.6928 83.5369 82.273C83.5369 82.8532 84.0072 83.3236 84.5875 83.3236H97.1946C97.57 83.3236 97.9168 83.1234 98.1045 82.7983C98.2921 82.4732 98.2921 82.0728 98.1045 81.7477C97.9168 81.4227 97.57 81.2224 97.1946 81.2224Z" fill="#DF8270"/>
</svg>
