<svg width="148" height="148" viewBox="0 0 148 148" fill="none" xmlns="http://www.w3.org/2000/svg">
<path fill-rule="evenodd" clip-rule="evenodd" d="M140.594 73.0823C138.573 69.354 138.272 65.1573 139.352 61.1154C141.184 54.7286 138.897 47.8728 133.599 43.864C130.208 41.436 127.962 37.7232 127.385 33.5929C126.332 27.0361 121.309 21.8277 114.795 20.5382C110.704 19.7675 107.077 17.4242 104.694 14.0108C100.877 8.53899 94.0372 6.05135 87.5973 7.79316C83.6153 8.93364 79.3388 8.37296 75.7854 6.24455C69.9852 2.99587 62.7694 3.74115 57.7557 8.10675C54.6585 10.9058 50.6089 12.1486 46.4122 11.9783C39.7499 11.5447 33.5318 15.3376 30.8681 21.4596C29.255 25.2905 26.1792 28.3189 22.3237 29.8724C16.1333 32.3263 12.1951 38.4524 12.5326 45.1029C12.7438 49.2252 11.2871 53.2591 8.49079 56.2954C3.87945 61.2719 2.88522 68.6063 6.00529 74.6309C8.02234 78.3591 8.32819 82.5559 7.24804 86.5977C5.41284 92.9838 7.69796 99.8407 12.9972 103.849C16.3921 106.276 18.6436 109.988 19.2265 114.12C20.2787 120.676 25.2999 125.884 31.8128 127.175C35.905 127.945 39.5325 130.289 41.9174 133.702C45.7318 139.174 52.5713 141.662 59.0101 139.92C62.9921 138.78 67.2687 139.34 70.8221 141.469C76.6222 144.717 83.838 143.972 88.8517 139.606C91.9489 136.807 96.0024 135.565 100.195 135.735C106.858 136.17 113.077 132.376 115.739 126.254C117.358 122.43 120.435 119.41 124.288 117.864C130.476 115.408 134.414 109.283 134.079 102.633C133.866 98.5109 135.323 94.4764 138.121 91.441C142.739 86.4575 143.729 79.1104 140.594 73.0823Z" stroke="#DF8270" stroke-width="6.3" stroke-linecap="round" stroke-linejoin="round"/>
<path d="M73.3001 126.064C102.133 126.064 125.507 102.69 125.507 73.8565C125.507 45.0232 102.133 21.6492 73.3001 21.6492C44.4668 21.6492 21.0928 45.0232 21.0928 73.8565C21.0928 102.69 44.4668 126.064 73.3001 126.064Z" stroke="#DF8270" stroke-width="6.3" stroke-linecap="round" stroke-linejoin="round"/>
</svg>
